<?xml version="1.0" encoding="utf-8"?>
<!DOCTYPE svg PUBLIC "-//W3C//DTD SVG 1.1//EN" "http://www.w3.org/Graphics/SVG/1.1/DTD/svg11.dtd">
<svg version="1.1" baseProfile="full"
 xmlns="http://www.w3.org/2000/svg"
 xmlns:xlink="http://www.w3.org/1999/xlink"
 xmlns:ev="http://www.w3.org/2001/xml-events" 
  height="87px" 
  width="120px" 
>
<path fill="rgb( 255, 57, 90 )"
 d="M38.001,59.5120000000002 C38.001,59.5120000000002 15.0060000000001,33.018 15.0060000000001,33.018 C15.0060000000001,33.018 15.0060000000001,86.0059999999999 15.0060000000001,86.0059999999999 C15.0060000000001,86.0059999999999 38.001,59.5120000000002 38.001,59.5120000000002 M5,0 C5,0 115,0 115,0 C117.761,0 120,2.23900000000003 120,5 C120,5 120,55 120,55 C120,57.7620000000002 117.761,60 115,60 C115,60 5,60 5,60 C2.23900000000003,60 0,57.7620000000002 0,55 C0,55 0,5 0,5 C0,2.23900000000003 2.23900000000003,0 5,0 Z "/>
</svg>
