<?xml version="1.0" encoding="utf-8"?>
<!DOCTYPE svg PUBLIC "-//W3C//DTD SVG 1.1//EN" "http://www.w3.org/Graphics/SVG/1.1/DTD/svg11.dtd">
<svg version="1.1" baseProfile="full"
 xmlns="http://www.w3.org/2000/svg"
 xmlns:xlink="http://www.w3.org/1999/xlink"
 xmlns:ev="http://www.w3.org/2001/xml-events" 
  height="22px" 
  width="25px" 
>
<path fill="rgb( 152, 203, 82 )"
 d="M15.3,19.1049999999996 C20.657,19.1049999999996 25,14.8280000000004 25,9.55299999999988 C25,4.27700000000004 20.657,0 15.3,0 C15.3,0 4.947,0 4.947,0 C4.947,0 4.947,4.05400000000009 4.947,4.05400000000009 C4.947,4.05400000000009 15.3,4.05400000000009 15.3,4.05400000000009 C18.383,4.05400000000009 20.884,6.51500000000033 20.884,9.55299999999988 C20.884,12.5900000000001 18.383,15.0510000000004 15.3,15.0510000000004 C15.3,15.0510000000004 8.65700000000004,15.0510000000004 8.65700000000004,15.0510000000004 C8.65700000000004,15.0510000000004 8.65700000000004,12.1559999999999 8.65700000000004,12.1559999999999 C8.65700000000004,12.1559999999999 0,17.0780000000004 0,17.0780000000004 C0,17.0780000000004 8.65700000000004,22 8.65700000000004,22 C8.65700000000004,22 8.65700000000004,19.1049999999996 8.65700000000004,19.1049999999996 C8.65700000000004,19.1049999999996 15.3,19.1049999999996 15.3,19.1049999999996 Z "/>
</svg>
